%FSLAX45Y45*%
G04 Gerber Fmt 4.5, Leading zero omitted, Abs format (unit mm)*
G04 Created by KiCad (PCBNEW 5.1.5) date 2020-05-24 22:33:19*
%MOMM*%
%LPD*%
G04 APERTURE LIST*
%TA.AperFunction,Profile*%
%ADD10C,0.050000*%
%TD*%
%ADD11C,0.200000*%
%ADD12C,0.300000*%
G04 APERTURE END LIST*
D10*
X3810000Y-5334000D02*
X3810000Y-2286000D01*
X14732000Y-5334000D02*
X3810000Y-5334000D01*
X14732000Y-2032000D02*
X14732000Y-5334000D01*
X3810000Y-2032000D02*
X14732000Y-2032000D01*
X3810000Y-2286000D02*
X3810000Y-2032000D01*
D11*
X9741500Y-2629500D02*
X9816500Y-2704500D01*
X9816500Y-2629500D02*
X9741500Y-2704500D01*
X9868500Y-2502500D02*
X9943500Y-2577500D01*
X9943500Y-2502500D02*
X9868500Y-2577500D01*
X9995500Y-2629500D02*
X10070500Y-2704500D01*
X10070500Y-2629500D02*
X9995500Y-2704500D01*
X4375600Y-2698000D02*
G75*
G03X4375600Y-2698000I-38100J0D01*
G01*
X4375600Y-2948000D02*
G75*
G03X4375600Y-2948000I-38100J0D01*
G01*
X4375600Y-3148000D02*
G75*
G03X4375600Y-3148000I-38100J0D01*
G01*
X4375600Y-3398000D02*
G75*
G03X4375600Y-3398000I-38100J0D01*
G01*
X5905500Y-3389000D02*
X5905500Y-3469000D01*
X5865500Y-3429000D02*
X5945500Y-3429000D01*
X5905500Y-3889000D02*
X5905500Y-3969000D01*
X5865500Y-3929000D02*
X5945500Y-3929000D01*
X10160000Y-4659000D02*
X10160000Y-4739000D01*
X10120000Y-4699000D02*
X10200000Y-4699000D01*
X10660000Y-4659000D02*
X10660000Y-4739000D01*
X10620000Y-4699000D02*
X10700000Y-4699000D01*
X12128500Y-3135000D02*
X12128500Y-3215000D01*
X12088500Y-3175000D02*
X12168500Y-3175000D01*
X12128500Y-3389000D02*
X12128500Y-3469000D01*
X12088500Y-3429000D02*
X12168500Y-3429000D01*
X12128500Y-3643000D02*
X12128500Y-3723000D01*
X12088500Y-3683000D02*
X12168500Y-3683000D01*
X12128500Y-3897000D02*
X12128500Y-3977000D01*
X12088500Y-3937000D02*
X12168500Y-3937000D01*
X12128500Y-4151000D02*
X12128500Y-4231000D01*
X12088500Y-4191000D02*
X12168500Y-4191000D01*
X12890500Y-3135000D02*
X12890500Y-3215000D01*
X12850500Y-3175000D02*
X12930500Y-3175000D01*
X12890500Y-3389000D02*
X12890500Y-3469000D01*
X12850500Y-3429000D02*
X12930500Y-3429000D01*
X12890500Y-3643000D02*
X12890500Y-3723000D01*
X12850500Y-3683000D02*
X12930500Y-3683000D01*
X12890500Y-3897000D02*
X12890500Y-3977000D01*
X12850500Y-3937000D02*
X12930500Y-3937000D01*
X12890500Y-4151000D02*
X12890500Y-4231000D01*
X12850500Y-4191000D02*
X12930500Y-4191000D01*
X13308500Y-3135000D02*
X13308500Y-3215000D01*
X13268500Y-3175000D02*
X13348500Y-3175000D01*
X13308500Y-3389000D02*
X13308500Y-3469000D01*
X13268500Y-3429000D02*
X13348500Y-3429000D01*
X13308500Y-3643000D02*
X13308500Y-3723000D01*
X13268500Y-3683000D02*
X13348500Y-3683000D01*
X13308500Y-3897000D02*
X13308500Y-3977000D01*
X13268500Y-3937000D02*
X13348500Y-3937000D01*
X13308500Y-4151000D02*
X13308500Y-4231000D01*
X13268500Y-4191000D02*
X13348500Y-4191000D01*
X14070500Y-3135000D02*
X14070500Y-3215000D01*
X14030500Y-3175000D02*
X14110500Y-3175000D01*
X14070500Y-3389000D02*
X14070500Y-3469000D01*
X14030500Y-3429000D02*
X14110500Y-3429000D01*
X14070500Y-3643000D02*
X14070500Y-3723000D01*
X14030500Y-3683000D02*
X14110500Y-3683000D01*
X14070500Y-3897000D02*
X14070500Y-3977000D01*
X14030500Y-3937000D02*
X14110500Y-3937000D01*
X14070500Y-4151000D02*
X14070500Y-4231000D01*
X14030500Y-4191000D02*
X14110500Y-4191000D01*
X6731000Y-4151000D02*
X6731000Y-4231000D01*
X6691000Y-4191000D02*
X6771000Y-4191000D01*
X6731000Y-4405000D02*
X6731000Y-4485000D01*
X6691000Y-4445000D02*
X6771000Y-4445000D01*
X8699500Y-2309500D02*
X8699500Y-2389500D01*
X8659500Y-2349500D02*
X8739500Y-2349500D01*
X9199500Y-2309500D02*
X9199500Y-2389500D01*
X9159500Y-2349500D02*
X9239500Y-2349500D01*
X9144000Y-4595500D02*
X9144000Y-4675500D01*
X9104000Y-4635500D02*
X9184000Y-4635500D01*
X9398000Y-4595500D02*
X9398000Y-4675500D01*
X9358000Y-4635500D02*
X9438000Y-4635500D01*
X11493500Y-3706500D02*
X11493500Y-3786500D01*
X11453500Y-3746500D02*
X11533500Y-3746500D01*
X11747500Y-3706500D02*
X11747500Y-3786500D01*
X11707500Y-3746500D02*
X11787500Y-3746500D01*
X11493500Y-2881000D02*
X11493500Y-2961000D01*
X11453500Y-2921000D02*
X11533500Y-2921000D01*
X11747500Y-2881000D02*
X11747500Y-2961000D01*
X11707500Y-2921000D02*
X11787500Y-2921000D01*
X8077200Y-2304800D02*
X8077200Y-2384800D01*
X8037200Y-2344800D02*
X8117200Y-2344800D01*
X8077200Y-2804800D02*
X8077200Y-2884800D01*
X8037200Y-2844800D02*
X8117200Y-2844800D01*
X5143500Y-3389000D02*
X5143500Y-3469000D01*
X5103500Y-3429000D02*
X5183500Y-3429000D01*
X5143500Y-3589000D02*
X5143500Y-3669000D01*
X5103500Y-3629000D02*
X5183500Y-3629000D01*
X6762820Y-3460820D02*
X6762820Y-3397180D01*
X6699180Y-3397180D01*
X6699180Y-3460820D01*
X6762820Y-3460820D01*
X6762820Y-3714820D02*
X6762820Y-3651180D01*
X6699180Y-3651180D01*
X6699180Y-3714820D01*
X6762820Y-3714820D01*
X8477320Y-4667320D02*
X8477320Y-4603680D01*
X8413680Y-4603680D01*
X8413680Y-4667320D01*
X8477320Y-4667320D01*
X8731320Y-4667320D02*
X8731320Y-4603680D01*
X8667680Y-4603680D01*
X8667680Y-4667320D01*
X8731320Y-4667320D01*
X4117500Y-2528000D02*
X4167500Y-2478000D01*
X4117500Y-2428000D01*
X4067500Y-2478000D01*
X4117500Y-2528000D01*
X4192500Y-2438000D02*
X4042500Y-2438000D01*
X4192500Y-2518000D02*
X4042500Y-2518000D01*
X4042500Y-2438000D02*
G75*
G03X4042500Y-2518000I0J-40000D01*
G01*
X4192500Y-2518000D02*
G75*
G03X4192500Y-2438000I0J40000D01*
G01*
X4117500Y-3668000D02*
X4167500Y-3618000D01*
X4117500Y-3568000D01*
X4067500Y-3618000D01*
X4117500Y-3668000D01*
X4192500Y-3578000D02*
X4042500Y-3578000D01*
X4192500Y-3658000D02*
X4042500Y-3658000D01*
X4042500Y-3578000D02*
G75*
G03X4042500Y-3658000I0J-40000D01*
G01*
X4192500Y-3658000D02*
G75*
G03X4192500Y-3578000I0J40000D01*
G01*
X10160000Y-5130000D02*
X10210000Y-5080000D01*
X10160000Y-5030000D01*
X10110000Y-5080000D01*
X10160000Y-5130000D01*
X10414000Y-5130000D02*
X10464000Y-5080000D01*
X10414000Y-5030000D01*
X10364000Y-5080000D01*
X10414000Y-5130000D01*
X10668000Y-5130000D02*
X10718000Y-5080000D01*
X10668000Y-5030000D01*
X10618000Y-5080000D01*
X10668000Y-5130000D01*
X4072500Y-2763000D02*
X4182500Y-2873000D01*
X4182500Y-2763000D02*
X4072500Y-2873000D01*
X4182500Y-2818000D02*
G75*
G03X4182500Y-2818000I-55000J0D01*
G01*
X4072500Y-3223000D02*
X4182500Y-3333000D01*
X4182500Y-3223000D02*
X4072500Y-3333000D01*
X4182500Y-3278000D02*
G75*
G03X4182500Y-3278000I-55000J0D01*
G01*
D12*
X4093928Y-5802214D02*
X4093928Y-5502214D01*
X4165357Y-5502214D01*
X4208214Y-5516500D01*
X4236786Y-5545072D01*
X4251071Y-5573643D01*
X4265357Y-5630786D01*
X4265357Y-5673643D01*
X4251071Y-5730786D01*
X4236786Y-5759357D01*
X4208214Y-5787929D01*
X4165357Y-5802214D01*
X4093928Y-5802214D01*
X4393928Y-5802214D02*
X4393928Y-5602214D01*
X4393928Y-5659357D02*
X4408214Y-5630786D01*
X4422500Y-5616500D01*
X4451071Y-5602214D01*
X4479643Y-5602214D01*
X4579643Y-5802214D02*
X4579643Y-5602214D01*
X4579643Y-5502214D02*
X4565357Y-5516500D01*
X4579643Y-5530786D01*
X4593928Y-5516500D01*
X4579643Y-5502214D01*
X4579643Y-5530786D01*
X4765357Y-5802214D02*
X4736786Y-5787929D01*
X4722500Y-5759357D01*
X4722500Y-5502214D01*
X4922500Y-5802214D02*
X4893928Y-5787929D01*
X4879643Y-5759357D01*
X4879643Y-5502214D01*
X5265357Y-5802214D02*
X5265357Y-5502214D01*
X5365357Y-5716500D01*
X5465357Y-5502214D01*
X5465357Y-5802214D01*
X5736786Y-5802214D02*
X5736786Y-5645071D01*
X5722500Y-5616500D01*
X5693928Y-5602214D01*
X5636786Y-5602214D01*
X5608214Y-5616500D01*
X5736786Y-5787929D02*
X5708214Y-5802214D01*
X5636786Y-5802214D01*
X5608214Y-5787929D01*
X5593928Y-5759357D01*
X5593928Y-5730786D01*
X5608214Y-5702214D01*
X5636786Y-5687929D01*
X5708214Y-5687929D01*
X5736786Y-5673643D01*
X5879643Y-5602214D02*
X5879643Y-5902214D01*
X5879643Y-5616500D02*
X5908214Y-5602214D01*
X5965357Y-5602214D01*
X5993928Y-5616500D01*
X6008214Y-5630786D01*
X6022500Y-5659357D01*
X6022500Y-5745071D01*
X6008214Y-5773643D01*
X5993928Y-5787929D01*
X5965357Y-5802214D01*
X5908214Y-5802214D01*
X5879643Y-5787929D01*
X6151071Y-5773643D02*
X6165357Y-5787929D01*
X6151071Y-5802214D01*
X6136786Y-5787929D01*
X6151071Y-5773643D01*
X6151071Y-5802214D01*
X6151071Y-5616500D02*
X6165357Y-5630786D01*
X6151071Y-5645071D01*
X6136786Y-5630786D01*
X6151071Y-5616500D01*
X6151071Y-5645071D01*
X3732500Y-6259000D02*
X3807500Y-6334000D01*
X3807500Y-6259000D02*
X3732500Y-6334000D01*
X4151071Y-6132214D02*
X4179643Y-6132214D01*
X4208214Y-6146500D01*
X4222500Y-6160786D01*
X4236786Y-6189357D01*
X4251071Y-6246500D01*
X4251071Y-6317929D01*
X4236786Y-6375071D01*
X4222500Y-6403643D01*
X4208214Y-6417929D01*
X4179643Y-6432214D01*
X4151071Y-6432214D01*
X4122500Y-6417929D01*
X4108214Y-6403643D01*
X4093928Y-6375071D01*
X4079643Y-6317929D01*
X4079643Y-6246500D01*
X4093928Y-6189357D01*
X4108214Y-6160786D01*
X4122500Y-6146500D01*
X4151071Y-6132214D01*
X4379643Y-6403643D02*
X4393928Y-6417929D01*
X4379643Y-6432214D01*
X4365357Y-6417929D01*
X4379643Y-6403643D01*
X4379643Y-6432214D01*
X4493928Y-6132214D02*
X4693928Y-6132214D01*
X4565357Y-6432214D01*
X4951071Y-6132214D02*
X4808214Y-6132214D01*
X4793928Y-6275071D01*
X4808214Y-6260786D01*
X4836786Y-6246500D01*
X4908214Y-6246500D01*
X4936786Y-6260786D01*
X4951071Y-6275071D01*
X4965357Y-6303643D01*
X4965357Y-6375071D01*
X4951071Y-6403643D01*
X4936786Y-6417929D01*
X4908214Y-6432214D01*
X4836786Y-6432214D01*
X4808214Y-6417929D01*
X4793928Y-6403643D01*
X5093928Y-6432214D02*
X5093928Y-6232214D01*
X5093928Y-6260786D02*
X5108214Y-6246500D01*
X5136786Y-6232214D01*
X5179643Y-6232214D01*
X5208214Y-6246500D01*
X5222500Y-6275071D01*
X5222500Y-6432214D01*
X5222500Y-6275071D02*
X5236786Y-6246500D01*
X5265357Y-6232214D01*
X5308214Y-6232214D01*
X5336786Y-6246500D01*
X5351071Y-6275071D01*
X5351071Y-6432214D01*
X5493928Y-6432214D02*
X5493928Y-6232214D01*
X5493928Y-6260786D02*
X5508214Y-6246500D01*
X5536786Y-6232214D01*
X5579643Y-6232214D01*
X5608214Y-6246500D01*
X5622500Y-6275071D01*
X5622500Y-6432214D01*
X5622500Y-6275071D02*
X5636786Y-6246500D01*
X5665357Y-6232214D01*
X5708214Y-6232214D01*
X5736786Y-6246500D01*
X5751071Y-6275071D01*
X5751071Y-6432214D01*
X6336786Y-6117929D02*
X6079643Y-6503643D01*
X6722500Y-6132214D02*
X6751071Y-6132214D01*
X6779643Y-6146500D01*
X6793928Y-6160786D01*
X6808214Y-6189357D01*
X6822500Y-6246500D01*
X6822500Y-6317929D01*
X6808214Y-6375071D01*
X6793928Y-6403643D01*
X6779643Y-6417929D01*
X6751071Y-6432214D01*
X6722500Y-6432214D01*
X6693928Y-6417929D01*
X6679643Y-6403643D01*
X6665357Y-6375071D01*
X6651071Y-6317929D01*
X6651071Y-6246500D01*
X6665357Y-6189357D01*
X6679643Y-6160786D01*
X6693928Y-6146500D01*
X6722500Y-6132214D01*
X6951071Y-6403643D02*
X6965357Y-6417929D01*
X6951071Y-6432214D01*
X6936786Y-6417929D01*
X6951071Y-6403643D01*
X6951071Y-6432214D01*
X7151071Y-6132214D02*
X7179643Y-6132214D01*
X7208214Y-6146500D01*
X7222500Y-6160786D01*
X7236786Y-6189357D01*
X7251071Y-6246500D01*
X7251071Y-6317929D01*
X7236786Y-6375071D01*
X7222500Y-6403643D01*
X7208214Y-6417929D01*
X7179643Y-6432214D01*
X7151071Y-6432214D01*
X7122500Y-6417929D01*
X7108214Y-6403643D01*
X7093928Y-6375071D01*
X7079643Y-6317929D01*
X7079643Y-6246500D01*
X7093928Y-6189357D01*
X7108214Y-6160786D01*
X7122500Y-6146500D01*
X7151071Y-6132214D01*
X7351071Y-6132214D02*
X7536786Y-6132214D01*
X7436786Y-6246500D01*
X7479643Y-6246500D01*
X7508214Y-6260786D01*
X7522500Y-6275071D01*
X7536786Y-6303643D01*
X7536786Y-6375071D01*
X7522500Y-6403643D01*
X7508214Y-6417929D01*
X7479643Y-6432214D01*
X7393928Y-6432214D01*
X7365357Y-6417929D01*
X7351071Y-6403643D01*
X7722500Y-6132214D02*
X7751071Y-6132214D01*
X7779643Y-6146500D01*
X7793928Y-6160786D01*
X7808214Y-6189357D01*
X7822500Y-6246500D01*
X7822500Y-6317929D01*
X7808214Y-6375071D01*
X7793928Y-6403643D01*
X7779643Y-6417929D01*
X7751071Y-6432214D01*
X7722500Y-6432214D01*
X7693928Y-6417929D01*
X7679643Y-6403643D01*
X7665357Y-6375071D01*
X7651071Y-6317929D01*
X7651071Y-6246500D01*
X7665357Y-6189357D01*
X7679643Y-6160786D01*
X7693928Y-6146500D01*
X7722500Y-6132214D01*
X7936786Y-6132214D02*
X7936786Y-6189357D01*
X8051071Y-6132214D02*
X8051071Y-6189357D01*
X8493928Y-6546500D02*
X8479643Y-6532214D01*
X8451071Y-6489357D01*
X8436786Y-6460786D01*
X8422500Y-6417929D01*
X8408214Y-6346500D01*
X8408214Y-6289357D01*
X8422500Y-6217929D01*
X8436786Y-6175071D01*
X8451071Y-6146500D01*
X8479643Y-6103643D01*
X8493928Y-6089357D01*
X8579643Y-6132214D02*
X8765357Y-6132214D01*
X8665357Y-6246500D01*
X8708214Y-6246500D01*
X8736786Y-6260786D01*
X8751071Y-6275071D01*
X8765357Y-6303643D01*
X8765357Y-6375071D01*
X8751071Y-6403643D01*
X8736786Y-6417929D01*
X8708214Y-6432214D01*
X8622500Y-6432214D01*
X8593928Y-6417929D01*
X8579643Y-6403643D01*
X9122500Y-6432214D02*
X9122500Y-6132214D01*
X9251071Y-6432214D02*
X9251071Y-6275071D01*
X9236786Y-6246500D01*
X9208214Y-6232214D01*
X9165357Y-6232214D01*
X9136786Y-6246500D01*
X9122500Y-6260786D01*
X9436786Y-6432214D02*
X9408214Y-6417929D01*
X9393928Y-6403643D01*
X9379643Y-6375071D01*
X9379643Y-6289357D01*
X9393928Y-6260786D01*
X9408214Y-6246500D01*
X9436786Y-6232214D01*
X9479643Y-6232214D01*
X9508214Y-6246500D01*
X9522500Y-6260786D01*
X9536786Y-6289357D01*
X9536786Y-6375071D01*
X9522500Y-6403643D01*
X9508214Y-6417929D01*
X9479643Y-6432214D01*
X9436786Y-6432214D01*
X9708214Y-6432214D02*
X9679643Y-6417929D01*
X9665357Y-6389357D01*
X9665357Y-6132214D01*
X9936786Y-6417929D02*
X9908214Y-6432214D01*
X9851071Y-6432214D01*
X9822500Y-6417929D01*
X9808214Y-6389357D01*
X9808214Y-6275071D01*
X9822500Y-6246500D01*
X9851071Y-6232214D01*
X9908214Y-6232214D01*
X9936786Y-6246500D01*
X9951071Y-6275071D01*
X9951071Y-6303643D01*
X9808214Y-6332214D01*
X10065357Y-6417929D02*
X10093928Y-6432214D01*
X10151071Y-6432214D01*
X10179643Y-6417929D01*
X10193928Y-6389357D01*
X10193928Y-6375071D01*
X10179643Y-6346500D01*
X10151071Y-6332214D01*
X10108214Y-6332214D01*
X10079643Y-6317929D01*
X10065357Y-6289357D01*
X10065357Y-6275071D01*
X10079643Y-6246500D01*
X10108214Y-6232214D01*
X10151071Y-6232214D01*
X10179643Y-6246500D01*
X10293928Y-6546500D02*
X10308214Y-6532214D01*
X10336786Y-6489357D01*
X10351071Y-6460786D01*
X10365357Y-6417929D01*
X10379643Y-6346500D01*
X10379643Y-6289357D01*
X10365357Y-6217929D01*
X10351071Y-6175071D01*
X10336786Y-6146500D01*
X10308214Y-6103643D01*
X10293928Y-6089357D01*
X3807500Y-6692500D02*
G75*
G03X3807500Y-6692500I-38100J0D01*
G01*
X4151071Y-6528214D02*
X4179643Y-6528214D01*
X4208214Y-6542500D01*
X4222500Y-6556786D01*
X4236786Y-6585357D01*
X4251071Y-6642500D01*
X4251071Y-6713929D01*
X4236786Y-6771071D01*
X4222500Y-6799643D01*
X4208214Y-6813929D01*
X4179643Y-6828214D01*
X4151071Y-6828214D01*
X4122500Y-6813929D01*
X4108214Y-6799643D01*
X4093928Y-6771071D01*
X4079643Y-6713929D01*
X4079643Y-6642500D01*
X4093928Y-6585357D01*
X4108214Y-6556786D01*
X4122500Y-6542500D01*
X4151071Y-6528214D01*
X4379643Y-6799643D02*
X4393928Y-6813929D01*
X4379643Y-6828214D01*
X4365357Y-6813929D01*
X4379643Y-6799643D01*
X4379643Y-6828214D01*
X4493928Y-6528214D02*
X4693928Y-6528214D01*
X4565357Y-6828214D01*
X4936786Y-6528214D02*
X4879643Y-6528214D01*
X4851071Y-6542500D01*
X4836786Y-6556786D01*
X4808214Y-6599643D01*
X4793928Y-6656786D01*
X4793928Y-6771071D01*
X4808214Y-6799643D01*
X4822500Y-6813929D01*
X4851071Y-6828214D01*
X4908214Y-6828214D01*
X4936786Y-6813929D01*
X4951071Y-6799643D01*
X4965357Y-6771071D01*
X4965357Y-6699643D01*
X4951071Y-6671071D01*
X4936786Y-6656786D01*
X4908214Y-6642500D01*
X4851071Y-6642500D01*
X4822500Y-6656786D01*
X4808214Y-6671071D01*
X4793928Y-6699643D01*
X5093928Y-6828214D02*
X5093928Y-6628214D01*
X5093928Y-6656786D02*
X5108214Y-6642500D01*
X5136786Y-6628214D01*
X5179643Y-6628214D01*
X5208214Y-6642500D01*
X5222500Y-6671071D01*
X5222500Y-6828214D01*
X5222500Y-6671071D02*
X5236786Y-6642500D01*
X5265357Y-6628214D01*
X5308214Y-6628214D01*
X5336786Y-6642500D01*
X5351071Y-6671071D01*
X5351071Y-6828214D01*
X5493928Y-6828214D02*
X5493928Y-6628214D01*
X5493928Y-6656786D02*
X5508214Y-6642500D01*
X5536786Y-6628214D01*
X5579643Y-6628214D01*
X5608214Y-6642500D01*
X5622500Y-6671071D01*
X5622500Y-6828214D01*
X5622500Y-6671071D02*
X5636786Y-6642500D01*
X5665357Y-6628214D01*
X5708214Y-6628214D01*
X5736786Y-6642500D01*
X5751071Y-6671071D01*
X5751071Y-6828214D01*
X6336786Y-6513929D02*
X6079643Y-6899643D01*
X6722500Y-6528214D02*
X6751071Y-6528214D01*
X6779643Y-6542500D01*
X6793928Y-6556786D01*
X6808214Y-6585357D01*
X6822500Y-6642500D01*
X6822500Y-6713929D01*
X6808214Y-6771071D01*
X6793928Y-6799643D01*
X6779643Y-6813929D01*
X6751071Y-6828214D01*
X6722500Y-6828214D01*
X6693928Y-6813929D01*
X6679643Y-6799643D01*
X6665357Y-6771071D01*
X6651071Y-6713929D01*
X6651071Y-6642500D01*
X6665357Y-6585357D01*
X6679643Y-6556786D01*
X6693928Y-6542500D01*
X6722500Y-6528214D01*
X6951071Y-6799643D02*
X6965357Y-6813929D01*
X6951071Y-6828214D01*
X6936786Y-6813929D01*
X6951071Y-6799643D01*
X6951071Y-6828214D01*
X7151071Y-6528214D02*
X7179643Y-6528214D01*
X7208214Y-6542500D01*
X7222500Y-6556786D01*
X7236786Y-6585357D01*
X7251071Y-6642500D01*
X7251071Y-6713929D01*
X7236786Y-6771071D01*
X7222500Y-6799643D01*
X7208214Y-6813929D01*
X7179643Y-6828214D01*
X7151071Y-6828214D01*
X7122500Y-6813929D01*
X7108214Y-6799643D01*
X7093928Y-6771071D01*
X7079643Y-6713929D01*
X7079643Y-6642500D01*
X7093928Y-6585357D01*
X7108214Y-6556786D01*
X7122500Y-6542500D01*
X7151071Y-6528214D01*
X7351071Y-6528214D02*
X7536786Y-6528214D01*
X7436786Y-6642500D01*
X7479643Y-6642500D01*
X7508214Y-6656786D01*
X7522500Y-6671071D01*
X7536786Y-6699643D01*
X7536786Y-6771071D01*
X7522500Y-6799643D01*
X7508214Y-6813929D01*
X7479643Y-6828214D01*
X7393928Y-6828214D01*
X7365357Y-6813929D01*
X7351071Y-6799643D01*
X7722500Y-6528214D02*
X7751071Y-6528214D01*
X7779643Y-6542500D01*
X7793928Y-6556786D01*
X7808214Y-6585357D01*
X7822500Y-6642500D01*
X7822500Y-6713929D01*
X7808214Y-6771071D01*
X7793928Y-6799643D01*
X7779643Y-6813929D01*
X7751071Y-6828214D01*
X7722500Y-6828214D01*
X7693928Y-6813929D01*
X7679643Y-6799643D01*
X7665357Y-6771071D01*
X7651071Y-6713929D01*
X7651071Y-6642500D01*
X7665357Y-6585357D01*
X7679643Y-6556786D01*
X7693928Y-6542500D01*
X7722500Y-6528214D01*
X7936786Y-6528214D02*
X7936786Y-6585357D01*
X8051071Y-6528214D02*
X8051071Y-6585357D01*
X8493928Y-6942500D02*
X8479643Y-6928214D01*
X8451071Y-6885357D01*
X8436786Y-6856786D01*
X8422500Y-6813929D01*
X8408214Y-6742500D01*
X8408214Y-6685357D01*
X8422500Y-6613929D01*
X8436786Y-6571071D01*
X8451071Y-6542500D01*
X8479643Y-6499643D01*
X8493928Y-6485357D01*
X8736786Y-6628214D02*
X8736786Y-6828214D01*
X8665357Y-6513929D02*
X8593928Y-6728214D01*
X8779643Y-6728214D01*
X9122500Y-6828214D02*
X9122500Y-6528214D01*
X9251071Y-6828214D02*
X9251071Y-6671071D01*
X9236786Y-6642500D01*
X9208214Y-6628214D01*
X9165357Y-6628214D01*
X9136786Y-6642500D01*
X9122500Y-6656786D01*
X9436786Y-6828214D02*
X9408214Y-6813929D01*
X9393928Y-6799643D01*
X9379643Y-6771071D01*
X9379643Y-6685357D01*
X9393928Y-6656786D01*
X9408214Y-6642500D01*
X9436786Y-6628214D01*
X9479643Y-6628214D01*
X9508214Y-6642500D01*
X9522500Y-6656786D01*
X9536786Y-6685357D01*
X9536786Y-6771071D01*
X9522500Y-6799643D01*
X9508214Y-6813929D01*
X9479643Y-6828214D01*
X9436786Y-6828214D01*
X9708214Y-6828214D02*
X9679643Y-6813929D01*
X9665357Y-6785357D01*
X9665357Y-6528214D01*
X9936786Y-6813929D02*
X9908214Y-6828214D01*
X9851071Y-6828214D01*
X9822500Y-6813929D01*
X9808214Y-6785357D01*
X9808214Y-6671071D01*
X9822500Y-6642500D01*
X9851071Y-6628214D01*
X9908214Y-6628214D01*
X9936786Y-6642500D01*
X9951071Y-6671071D01*
X9951071Y-6699643D01*
X9808214Y-6728214D01*
X10065357Y-6813929D02*
X10093928Y-6828214D01*
X10151071Y-6828214D01*
X10179643Y-6813929D01*
X10193928Y-6785357D01*
X10193928Y-6771071D01*
X10179643Y-6742500D01*
X10151071Y-6728214D01*
X10108214Y-6728214D01*
X10079643Y-6713929D01*
X10065357Y-6685357D01*
X10065357Y-6671071D01*
X10079643Y-6642500D01*
X10108214Y-6628214D01*
X10151071Y-6628214D01*
X10179643Y-6642500D01*
X10293928Y-6942500D02*
X10308214Y-6928214D01*
X10336786Y-6885357D01*
X10351071Y-6856786D01*
X10365357Y-6813929D01*
X10379643Y-6742500D01*
X10379643Y-6685357D01*
X10365357Y-6613929D01*
X10351071Y-6571071D01*
X10336786Y-6542500D01*
X10308214Y-6499643D01*
X10293928Y-6485357D01*
X3767500Y-7048500D02*
X3767500Y-7128500D01*
X3727500Y-7088500D02*
X3807500Y-7088500D01*
X4151071Y-6924214D02*
X4179643Y-6924214D01*
X4208214Y-6938500D01*
X4222500Y-6952786D01*
X4236786Y-6981357D01*
X4251071Y-7038500D01*
X4251071Y-7109929D01*
X4236786Y-7167071D01*
X4222500Y-7195643D01*
X4208214Y-7209929D01*
X4179643Y-7224214D01*
X4151071Y-7224214D01*
X4122500Y-7209929D01*
X4108214Y-7195643D01*
X4093928Y-7167071D01*
X4079643Y-7109929D01*
X4079643Y-7038500D01*
X4093928Y-6981357D01*
X4108214Y-6952786D01*
X4122500Y-6938500D01*
X4151071Y-6924214D01*
X4379643Y-7195643D02*
X4393928Y-7209929D01*
X4379643Y-7224214D01*
X4365357Y-7209929D01*
X4379643Y-7195643D01*
X4379643Y-7224214D01*
X4565357Y-7052786D02*
X4536786Y-7038500D01*
X4522500Y-7024214D01*
X4508214Y-6995643D01*
X4508214Y-6981357D01*
X4522500Y-6952786D01*
X4536786Y-6938500D01*
X4565357Y-6924214D01*
X4622500Y-6924214D01*
X4651071Y-6938500D01*
X4665357Y-6952786D01*
X4679643Y-6981357D01*
X4679643Y-6995643D01*
X4665357Y-7024214D01*
X4651071Y-7038500D01*
X4622500Y-7052786D01*
X4565357Y-7052786D01*
X4536786Y-7067071D01*
X4522500Y-7081357D01*
X4508214Y-7109929D01*
X4508214Y-7167071D01*
X4522500Y-7195643D01*
X4536786Y-7209929D01*
X4565357Y-7224214D01*
X4622500Y-7224214D01*
X4651071Y-7209929D01*
X4665357Y-7195643D01*
X4679643Y-7167071D01*
X4679643Y-7109929D01*
X4665357Y-7081357D01*
X4651071Y-7067071D01*
X4622500Y-7052786D01*
X4865357Y-6924214D02*
X4893928Y-6924214D01*
X4922500Y-6938500D01*
X4936786Y-6952786D01*
X4951071Y-6981357D01*
X4965357Y-7038500D01*
X4965357Y-7109929D01*
X4951071Y-7167071D01*
X4936786Y-7195643D01*
X4922500Y-7209929D01*
X4893928Y-7224214D01*
X4865357Y-7224214D01*
X4836786Y-7209929D01*
X4822500Y-7195643D01*
X4808214Y-7167071D01*
X4793928Y-7109929D01*
X4793928Y-7038500D01*
X4808214Y-6981357D01*
X4822500Y-6952786D01*
X4836786Y-6938500D01*
X4865357Y-6924214D01*
X5093928Y-7224214D02*
X5093928Y-7024214D01*
X5093928Y-7052786D02*
X5108214Y-7038500D01*
X5136786Y-7024214D01*
X5179643Y-7024214D01*
X5208214Y-7038500D01*
X5222500Y-7067071D01*
X5222500Y-7224214D01*
X5222500Y-7067071D02*
X5236786Y-7038500D01*
X5265357Y-7024214D01*
X5308214Y-7024214D01*
X5336786Y-7038500D01*
X5351071Y-7067071D01*
X5351071Y-7224214D01*
X5493928Y-7224214D02*
X5493928Y-7024214D01*
X5493928Y-7052786D02*
X5508214Y-7038500D01*
X5536786Y-7024214D01*
X5579643Y-7024214D01*
X5608214Y-7038500D01*
X5622500Y-7067071D01*
X5622500Y-7224214D01*
X5622500Y-7067071D02*
X5636786Y-7038500D01*
X5665357Y-7024214D01*
X5708214Y-7024214D01*
X5736786Y-7038500D01*
X5751071Y-7067071D01*
X5751071Y-7224214D01*
X6336786Y-6909929D02*
X6079643Y-7295643D01*
X6722500Y-6924214D02*
X6751071Y-6924214D01*
X6779643Y-6938500D01*
X6793928Y-6952786D01*
X6808214Y-6981357D01*
X6822500Y-7038500D01*
X6822500Y-7109929D01*
X6808214Y-7167071D01*
X6793928Y-7195643D01*
X6779643Y-7209929D01*
X6751071Y-7224214D01*
X6722500Y-7224214D01*
X6693928Y-7209929D01*
X6679643Y-7195643D01*
X6665357Y-7167071D01*
X6651071Y-7109929D01*
X6651071Y-7038500D01*
X6665357Y-6981357D01*
X6679643Y-6952786D01*
X6693928Y-6938500D01*
X6722500Y-6924214D01*
X6951071Y-7195643D02*
X6965357Y-7209929D01*
X6951071Y-7224214D01*
X6936786Y-7209929D01*
X6951071Y-7195643D01*
X6951071Y-7224214D01*
X7151071Y-6924214D02*
X7179643Y-6924214D01*
X7208214Y-6938500D01*
X7222500Y-6952786D01*
X7236786Y-6981357D01*
X7251071Y-7038500D01*
X7251071Y-7109929D01*
X7236786Y-7167071D01*
X7222500Y-7195643D01*
X7208214Y-7209929D01*
X7179643Y-7224214D01*
X7151071Y-7224214D01*
X7122500Y-7209929D01*
X7108214Y-7195643D01*
X7093928Y-7167071D01*
X7079643Y-7109929D01*
X7079643Y-7038500D01*
X7093928Y-6981357D01*
X7108214Y-6952786D01*
X7122500Y-6938500D01*
X7151071Y-6924214D01*
X7351071Y-6924214D02*
X7536786Y-6924214D01*
X7436786Y-7038500D01*
X7479643Y-7038500D01*
X7508214Y-7052786D01*
X7522500Y-7067071D01*
X7536786Y-7095643D01*
X7536786Y-7167071D01*
X7522500Y-7195643D01*
X7508214Y-7209929D01*
X7479643Y-7224214D01*
X7393928Y-7224214D01*
X7365357Y-7209929D01*
X7351071Y-7195643D01*
X7822500Y-7224214D02*
X7651071Y-7224214D01*
X7736786Y-7224214D02*
X7736786Y-6924214D01*
X7708214Y-6967071D01*
X7679643Y-6995643D01*
X7651071Y-7009929D01*
X7936786Y-6924214D02*
X7936786Y-6981357D01*
X8051071Y-6924214D02*
X8051071Y-6981357D01*
X8493928Y-7338500D02*
X8479643Y-7324214D01*
X8451071Y-7281357D01*
X8436786Y-7252786D01*
X8422500Y-7209929D01*
X8408214Y-7138500D01*
X8408214Y-7081357D01*
X8422500Y-7009929D01*
X8436786Y-6967071D01*
X8451071Y-6938500D01*
X8479643Y-6895643D01*
X8493928Y-6881357D01*
X8579643Y-6924214D02*
X8765357Y-6924214D01*
X8665357Y-7038500D01*
X8708214Y-7038500D01*
X8736786Y-7052786D01*
X8751071Y-7067071D01*
X8765357Y-7095643D01*
X8765357Y-7167071D01*
X8751071Y-7195643D01*
X8736786Y-7209929D01*
X8708214Y-7224214D01*
X8622500Y-7224214D01*
X8593928Y-7209929D01*
X8579643Y-7195643D01*
X8936786Y-7052786D02*
X8908214Y-7038500D01*
X8893928Y-7024214D01*
X8879643Y-6995643D01*
X8879643Y-6981357D01*
X8893928Y-6952786D01*
X8908214Y-6938500D01*
X8936786Y-6924214D01*
X8993928Y-6924214D01*
X9022500Y-6938500D01*
X9036786Y-6952786D01*
X9051071Y-6981357D01*
X9051071Y-6995643D01*
X9036786Y-7024214D01*
X9022500Y-7038500D01*
X8993928Y-7052786D01*
X8936786Y-7052786D01*
X8908214Y-7067071D01*
X8893928Y-7081357D01*
X8879643Y-7109929D01*
X8879643Y-7167071D01*
X8893928Y-7195643D01*
X8908214Y-7209929D01*
X8936786Y-7224214D01*
X8993928Y-7224214D01*
X9022500Y-7209929D01*
X9036786Y-7195643D01*
X9051071Y-7167071D01*
X9051071Y-7109929D01*
X9036786Y-7081357D01*
X9022500Y-7067071D01*
X8993928Y-7052786D01*
X9408214Y-7224214D02*
X9408214Y-6924214D01*
X9536786Y-7224214D02*
X9536786Y-7067071D01*
X9522500Y-7038500D01*
X9493928Y-7024214D01*
X9451071Y-7024214D01*
X9422500Y-7038500D01*
X9408214Y-7052786D01*
X9722500Y-7224214D02*
X9693928Y-7209929D01*
X9679643Y-7195643D01*
X9665357Y-7167071D01*
X9665357Y-7081357D01*
X9679643Y-7052786D01*
X9693928Y-7038500D01*
X9722500Y-7024214D01*
X9765357Y-7024214D01*
X9793928Y-7038500D01*
X9808214Y-7052786D01*
X9822500Y-7081357D01*
X9822500Y-7167071D01*
X9808214Y-7195643D01*
X9793928Y-7209929D01*
X9765357Y-7224214D01*
X9722500Y-7224214D01*
X9993928Y-7224214D02*
X9965357Y-7209929D01*
X9951071Y-7181357D01*
X9951071Y-6924214D01*
X10222500Y-7209929D02*
X10193928Y-7224214D01*
X10136786Y-7224214D01*
X10108214Y-7209929D01*
X10093928Y-7181357D01*
X10093928Y-7067071D01*
X10108214Y-7038500D01*
X10136786Y-7024214D01*
X10193928Y-7024214D01*
X10222500Y-7038500D01*
X10236786Y-7067071D01*
X10236786Y-7095643D01*
X10093928Y-7124214D01*
X10351071Y-7209929D02*
X10379643Y-7224214D01*
X10436786Y-7224214D01*
X10465357Y-7209929D01*
X10479643Y-7181357D01*
X10479643Y-7167071D01*
X10465357Y-7138500D01*
X10436786Y-7124214D01*
X10393928Y-7124214D01*
X10365357Y-7109929D01*
X10351071Y-7081357D01*
X10351071Y-7067071D01*
X10365357Y-7038500D01*
X10393928Y-7024214D01*
X10436786Y-7024214D01*
X10465357Y-7038500D01*
X10579643Y-7338500D02*
X10593928Y-7324214D01*
X10622500Y-7281357D01*
X10636786Y-7252786D01*
X10651071Y-7209929D01*
X10665357Y-7138500D01*
X10665357Y-7081357D01*
X10651071Y-7009929D01*
X10636786Y-6967071D01*
X10622500Y-6938500D01*
X10593928Y-6895643D01*
X10579643Y-6881357D01*
X3794320Y-7516320D02*
X3794320Y-7452680D01*
X3730680Y-7452680D01*
X3730680Y-7516320D01*
X3794320Y-7516320D01*
X4151071Y-7320214D02*
X4179643Y-7320214D01*
X4208214Y-7334500D01*
X4222500Y-7348786D01*
X4236786Y-7377357D01*
X4251071Y-7434500D01*
X4251071Y-7505929D01*
X4236786Y-7563071D01*
X4222500Y-7591643D01*
X4208214Y-7605929D01*
X4179643Y-7620214D01*
X4151071Y-7620214D01*
X4122500Y-7605929D01*
X4108214Y-7591643D01*
X4093928Y-7563071D01*
X4079643Y-7505929D01*
X4079643Y-7434500D01*
X4093928Y-7377357D01*
X4108214Y-7348786D01*
X4122500Y-7334500D01*
X4151071Y-7320214D01*
X4379643Y-7591643D02*
X4393928Y-7605929D01*
X4379643Y-7620214D01*
X4365357Y-7605929D01*
X4379643Y-7591643D01*
X4379643Y-7620214D01*
X4536786Y-7620214D02*
X4593928Y-7620214D01*
X4622500Y-7605929D01*
X4636786Y-7591643D01*
X4665357Y-7548786D01*
X4679643Y-7491643D01*
X4679643Y-7377357D01*
X4665357Y-7348786D01*
X4651071Y-7334500D01*
X4622500Y-7320214D01*
X4565357Y-7320214D01*
X4536786Y-7334500D01*
X4522500Y-7348786D01*
X4508214Y-7377357D01*
X4508214Y-7448786D01*
X4522500Y-7477357D01*
X4536786Y-7491643D01*
X4565357Y-7505929D01*
X4622500Y-7505929D01*
X4651071Y-7491643D01*
X4665357Y-7477357D01*
X4679643Y-7448786D01*
X4865357Y-7320214D02*
X4893928Y-7320214D01*
X4922500Y-7334500D01*
X4936786Y-7348786D01*
X4951071Y-7377357D01*
X4965357Y-7434500D01*
X4965357Y-7505929D01*
X4951071Y-7563071D01*
X4936786Y-7591643D01*
X4922500Y-7605929D01*
X4893928Y-7620214D01*
X4865357Y-7620214D01*
X4836786Y-7605929D01*
X4822500Y-7591643D01*
X4808214Y-7563071D01*
X4793928Y-7505929D01*
X4793928Y-7434500D01*
X4808214Y-7377357D01*
X4822500Y-7348786D01*
X4836786Y-7334500D01*
X4865357Y-7320214D01*
X5093928Y-7620214D02*
X5093928Y-7420214D01*
X5093928Y-7448786D02*
X5108214Y-7434500D01*
X5136786Y-7420214D01*
X5179643Y-7420214D01*
X5208214Y-7434500D01*
X5222500Y-7463071D01*
X5222500Y-7620214D01*
X5222500Y-7463071D02*
X5236786Y-7434500D01*
X5265357Y-7420214D01*
X5308214Y-7420214D01*
X5336786Y-7434500D01*
X5351071Y-7463071D01*
X5351071Y-7620214D01*
X5493928Y-7620214D02*
X5493928Y-7420214D01*
X5493928Y-7448786D02*
X5508214Y-7434500D01*
X5536786Y-7420214D01*
X5579643Y-7420214D01*
X5608214Y-7434500D01*
X5622500Y-7463071D01*
X5622500Y-7620214D01*
X5622500Y-7463071D02*
X5636786Y-7434500D01*
X5665357Y-7420214D01*
X5708214Y-7420214D01*
X5736786Y-7434500D01*
X5751071Y-7463071D01*
X5751071Y-7620214D01*
X6336786Y-7305929D02*
X6079643Y-7691643D01*
X6722500Y-7320214D02*
X6751071Y-7320214D01*
X6779643Y-7334500D01*
X6793928Y-7348786D01*
X6808214Y-7377357D01*
X6822500Y-7434500D01*
X6822500Y-7505929D01*
X6808214Y-7563071D01*
X6793928Y-7591643D01*
X6779643Y-7605929D01*
X6751071Y-7620214D01*
X6722500Y-7620214D01*
X6693928Y-7605929D01*
X6679643Y-7591643D01*
X6665357Y-7563071D01*
X6651071Y-7505929D01*
X6651071Y-7434500D01*
X6665357Y-7377357D01*
X6679643Y-7348786D01*
X6693928Y-7334500D01*
X6722500Y-7320214D01*
X6951071Y-7591643D02*
X6965357Y-7605929D01*
X6951071Y-7620214D01*
X6936786Y-7605929D01*
X6951071Y-7591643D01*
X6951071Y-7620214D01*
X7151071Y-7320214D02*
X7179643Y-7320214D01*
X7208214Y-7334500D01*
X7222500Y-7348786D01*
X7236786Y-7377357D01*
X7251071Y-7434500D01*
X7251071Y-7505929D01*
X7236786Y-7563071D01*
X7222500Y-7591643D01*
X7208214Y-7605929D01*
X7179643Y-7620214D01*
X7151071Y-7620214D01*
X7122500Y-7605929D01*
X7108214Y-7591643D01*
X7093928Y-7563071D01*
X7079643Y-7505929D01*
X7079643Y-7434500D01*
X7093928Y-7377357D01*
X7108214Y-7348786D01*
X7122500Y-7334500D01*
X7151071Y-7320214D01*
X7351071Y-7320214D02*
X7536786Y-7320214D01*
X7436786Y-7434500D01*
X7479643Y-7434500D01*
X7508214Y-7448786D01*
X7522500Y-7463071D01*
X7536786Y-7491643D01*
X7536786Y-7563071D01*
X7522500Y-7591643D01*
X7508214Y-7605929D01*
X7479643Y-7620214D01*
X7393928Y-7620214D01*
X7365357Y-7605929D01*
X7351071Y-7591643D01*
X7808214Y-7320214D02*
X7665357Y-7320214D01*
X7651071Y-7463071D01*
X7665357Y-7448786D01*
X7693928Y-7434500D01*
X7765357Y-7434500D01*
X7793928Y-7448786D01*
X7808214Y-7463071D01*
X7822500Y-7491643D01*
X7822500Y-7563071D01*
X7808214Y-7591643D01*
X7793928Y-7605929D01*
X7765357Y-7620214D01*
X7693928Y-7620214D01*
X7665357Y-7605929D01*
X7651071Y-7591643D01*
X7936786Y-7320214D02*
X7936786Y-7377357D01*
X8051071Y-7320214D02*
X8051071Y-7377357D01*
X8493928Y-7734500D02*
X8479643Y-7720214D01*
X8451071Y-7677357D01*
X8436786Y-7648786D01*
X8422500Y-7605929D01*
X8408214Y-7534500D01*
X8408214Y-7477357D01*
X8422500Y-7405929D01*
X8436786Y-7363071D01*
X8451071Y-7334500D01*
X8479643Y-7291643D01*
X8493928Y-7277357D01*
X8736786Y-7420214D02*
X8736786Y-7620214D01*
X8665357Y-7305929D02*
X8593928Y-7520214D01*
X8779643Y-7520214D01*
X9122500Y-7620214D02*
X9122500Y-7320214D01*
X9251071Y-7620214D02*
X9251071Y-7463071D01*
X9236786Y-7434500D01*
X9208214Y-7420214D01*
X9165357Y-7420214D01*
X9136786Y-7434500D01*
X9122500Y-7448786D01*
X9436786Y-7620214D02*
X9408214Y-7605929D01*
X9393928Y-7591643D01*
X9379643Y-7563071D01*
X9379643Y-7477357D01*
X9393928Y-7448786D01*
X9408214Y-7434500D01*
X9436786Y-7420214D01*
X9479643Y-7420214D01*
X9508214Y-7434500D01*
X9522500Y-7448786D01*
X9536786Y-7477357D01*
X9536786Y-7563071D01*
X9522500Y-7591643D01*
X9508214Y-7605929D01*
X9479643Y-7620214D01*
X9436786Y-7620214D01*
X9708214Y-7620214D02*
X9679643Y-7605929D01*
X9665357Y-7577357D01*
X9665357Y-7320214D01*
X9936786Y-7605929D02*
X9908214Y-7620214D01*
X9851071Y-7620214D01*
X9822500Y-7605929D01*
X9808214Y-7577357D01*
X9808214Y-7463071D01*
X9822500Y-7434500D01*
X9851071Y-7420214D01*
X9908214Y-7420214D01*
X9936786Y-7434500D01*
X9951071Y-7463071D01*
X9951071Y-7491643D01*
X9808214Y-7520214D01*
X10065357Y-7605929D02*
X10093928Y-7620214D01*
X10151071Y-7620214D01*
X10179643Y-7605929D01*
X10193928Y-7577357D01*
X10193928Y-7563071D01*
X10179643Y-7534500D01*
X10151071Y-7520214D01*
X10108214Y-7520214D01*
X10079643Y-7505929D01*
X10065357Y-7477357D01*
X10065357Y-7463071D01*
X10079643Y-7434500D01*
X10108214Y-7420214D01*
X10151071Y-7420214D01*
X10179643Y-7434500D01*
X10293928Y-7734500D02*
X10308214Y-7720214D01*
X10336786Y-7677357D01*
X10351071Y-7648786D01*
X10365357Y-7605929D01*
X10379643Y-7534500D01*
X10379643Y-7477357D01*
X10365357Y-7405929D01*
X10351071Y-7363071D01*
X10336786Y-7334500D01*
X10308214Y-7291643D01*
X10293928Y-7277357D01*
X3757500Y-7930500D02*
X3807500Y-7880500D01*
X3757500Y-7830500D01*
X3707500Y-7880500D01*
X3757500Y-7930500D01*
X4251071Y-8016214D02*
X4079643Y-8016214D01*
X4165357Y-8016214D02*
X4165357Y-7716214D01*
X4136786Y-7759071D01*
X4108214Y-7787643D01*
X4079643Y-7801929D01*
X4379643Y-7987643D02*
X4393928Y-8001929D01*
X4379643Y-8016214D01*
X4365357Y-8001929D01*
X4379643Y-7987643D01*
X4379643Y-8016214D01*
X4579643Y-7716214D02*
X4608214Y-7716214D01*
X4636786Y-7730500D01*
X4651071Y-7744786D01*
X4665357Y-7773357D01*
X4679643Y-7830500D01*
X4679643Y-7901929D01*
X4665357Y-7959071D01*
X4651071Y-7987643D01*
X4636786Y-8001929D01*
X4608214Y-8016214D01*
X4579643Y-8016214D01*
X4551071Y-8001929D01*
X4536786Y-7987643D01*
X4522500Y-7959071D01*
X4508214Y-7901929D01*
X4508214Y-7830500D01*
X4522500Y-7773357D01*
X4536786Y-7744786D01*
X4551071Y-7730500D01*
X4579643Y-7716214D01*
X4865357Y-7716214D02*
X4893928Y-7716214D01*
X4922500Y-7730500D01*
X4936786Y-7744786D01*
X4951071Y-7773357D01*
X4965357Y-7830500D01*
X4965357Y-7901929D01*
X4951071Y-7959071D01*
X4936786Y-7987643D01*
X4922500Y-8001929D01*
X4893928Y-8016214D01*
X4865357Y-8016214D01*
X4836786Y-8001929D01*
X4822500Y-7987643D01*
X4808214Y-7959071D01*
X4793928Y-7901929D01*
X4793928Y-7830500D01*
X4808214Y-7773357D01*
X4822500Y-7744786D01*
X4836786Y-7730500D01*
X4865357Y-7716214D01*
X5093928Y-8016214D02*
X5093928Y-7816214D01*
X5093928Y-7844786D02*
X5108214Y-7830500D01*
X5136786Y-7816214D01*
X5179643Y-7816214D01*
X5208214Y-7830500D01*
X5222500Y-7859071D01*
X5222500Y-8016214D01*
X5222500Y-7859071D02*
X5236786Y-7830500D01*
X5265357Y-7816214D01*
X5308214Y-7816214D01*
X5336786Y-7830500D01*
X5351071Y-7859071D01*
X5351071Y-8016214D01*
X5493928Y-8016214D02*
X5493928Y-7816214D01*
X5493928Y-7844786D02*
X5508214Y-7830500D01*
X5536786Y-7816214D01*
X5579643Y-7816214D01*
X5608214Y-7830500D01*
X5622500Y-7859071D01*
X5622500Y-8016214D01*
X5622500Y-7859071D02*
X5636786Y-7830500D01*
X5665357Y-7816214D01*
X5708214Y-7816214D01*
X5736786Y-7830500D01*
X5751071Y-7859071D01*
X5751071Y-8016214D01*
X6336786Y-7701929D02*
X6079643Y-8087643D01*
X6722500Y-7716214D02*
X6751071Y-7716214D01*
X6779643Y-7730500D01*
X6793928Y-7744786D01*
X6808214Y-7773357D01*
X6822500Y-7830500D01*
X6822500Y-7901929D01*
X6808214Y-7959071D01*
X6793928Y-7987643D01*
X6779643Y-8001929D01*
X6751071Y-8016214D01*
X6722500Y-8016214D01*
X6693928Y-8001929D01*
X6679643Y-7987643D01*
X6665357Y-7959071D01*
X6651071Y-7901929D01*
X6651071Y-7830500D01*
X6665357Y-7773357D01*
X6679643Y-7744786D01*
X6693928Y-7730500D01*
X6722500Y-7716214D01*
X6951071Y-7987643D02*
X6965357Y-8001929D01*
X6951071Y-8016214D01*
X6936786Y-8001929D01*
X6951071Y-7987643D01*
X6951071Y-8016214D01*
X7151071Y-7716214D02*
X7179643Y-7716214D01*
X7208214Y-7730500D01*
X7222500Y-7744786D01*
X7236786Y-7773357D01*
X7251071Y-7830500D01*
X7251071Y-7901929D01*
X7236786Y-7959071D01*
X7222500Y-7987643D01*
X7208214Y-8001929D01*
X7179643Y-8016214D01*
X7151071Y-8016214D01*
X7122500Y-8001929D01*
X7108214Y-7987643D01*
X7093928Y-7959071D01*
X7079643Y-7901929D01*
X7079643Y-7830500D01*
X7093928Y-7773357D01*
X7108214Y-7744786D01*
X7122500Y-7730500D01*
X7151071Y-7716214D01*
X7351071Y-7716214D02*
X7536786Y-7716214D01*
X7436786Y-7830500D01*
X7479643Y-7830500D01*
X7508214Y-7844786D01*
X7522500Y-7859071D01*
X7536786Y-7887643D01*
X7536786Y-7959071D01*
X7522500Y-7987643D01*
X7508214Y-8001929D01*
X7479643Y-8016214D01*
X7393928Y-8016214D01*
X7365357Y-8001929D01*
X7351071Y-7987643D01*
X7679643Y-8016214D02*
X7736786Y-8016214D01*
X7765357Y-8001929D01*
X7779643Y-7987643D01*
X7808214Y-7944786D01*
X7822500Y-7887643D01*
X7822500Y-7773357D01*
X7808214Y-7744786D01*
X7793928Y-7730500D01*
X7765357Y-7716214D01*
X7708214Y-7716214D01*
X7679643Y-7730500D01*
X7665357Y-7744786D01*
X7651071Y-7773357D01*
X7651071Y-7844786D01*
X7665357Y-7873357D01*
X7679643Y-7887643D01*
X7708214Y-7901929D01*
X7765357Y-7901929D01*
X7793928Y-7887643D01*
X7808214Y-7873357D01*
X7822500Y-7844786D01*
X7936786Y-7716214D02*
X7936786Y-7773357D01*
X8051071Y-7716214D02*
X8051071Y-7773357D01*
X8493928Y-8130500D02*
X8479643Y-8116214D01*
X8451071Y-8073357D01*
X8436786Y-8044786D01*
X8422500Y-8001929D01*
X8408214Y-7930500D01*
X8408214Y-7873357D01*
X8422500Y-7801929D01*
X8436786Y-7759071D01*
X8451071Y-7730500D01*
X8479643Y-7687643D01*
X8493928Y-7673357D01*
X8579643Y-7716214D02*
X8765357Y-7716214D01*
X8665357Y-7830500D01*
X8708214Y-7830500D01*
X8736786Y-7844786D01*
X8751071Y-7859071D01*
X8765357Y-7887643D01*
X8765357Y-7959071D01*
X8751071Y-7987643D01*
X8736786Y-8001929D01*
X8708214Y-8016214D01*
X8622500Y-8016214D01*
X8593928Y-8001929D01*
X8579643Y-7987643D01*
X9122500Y-8016214D02*
X9122500Y-7716214D01*
X9251071Y-8016214D02*
X9251071Y-7859071D01*
X9236786Y-7830500D01*
X9208214Y-7816214D01*
X9165357Y-7816214D01*
X9136786Y-7830500D01*
X9122500Y-7844786D01*
X9436786Y-8016214D02*
X9408214Y-8001929D01*
X9393928Y-7987643D01*
X9379643Y-7959071D01*
X9379643Y-7873357D01*
X9393928Y-7844786D01*
X9408214Y-7830500D01*
X9436786Y-7816214D01*
X9479643Y-7816214D01*
X9508214Y-7830500D01*
X9522500Y-7844786D01*
X9536786Y-7873357D01*
X9536786Y-7959071D01*
X9522500Y-7987643D01*
X9508214Y-8001929D01*
X9479643Y-8016214D01*
X9436786Y-8016214D01*
X9708214Y-8016214D02*
X9679643Y-8001929D01*
X9665357Y-7973357D01*
X9665357Y-7716214D01*
X9936786Y-8001929D02*
X9908214Y-8016214D01*
X9851071Y-8016214D01*
X9822500Y-8001929D01*
X9808214Y-7973357D01*
X9808214Y-7859071D01*
X9822500Y-7830500D01*
X9851071Y-7816214D01*
X9908214Y-7816214D01*
X9936786Y-7830500D01*
X9951071Y-7859071D01*
X9951071Y-7887643D01*
X9808214Y-7916214D01*
X10065357Y-8001929D02*
X10093928Y-8016214D01*
X10151071Y-8016214D01*
X10179643Y-8001929D01*
X10193928Y-7973357D01*
X10193928Y-7959071D01*
X10179643Y-7930500D01*
X10151071Y-7916214D01*
X10108214Y-7916214D01*
X10079643Y-7901929D01*
X10065357Y-7873357D01*
X10065357Y-7859071D01*
X10079643Y-7830500D01*
X10108214Y-7816214D01*
X10151071Y-7816214D01*
X10179643Y-7830500D01*
X10551071Y-7901929D02*
X10779643Y-7901929D01*
X10665357Y-8016214D02*
X10665357Y-7787643D01*
X11136786Y-7744786D02*
X11151071Y-7730500D01*
X11179643Y-7716214D01*
X11251071Y-7716214D01*
X11279643Y-7730500D01*
X11293928Y-7744786D01*
X11308214Y-7773357D01*
X11308214Y-7801929D01*
X11293928Y-7844786D01*
X11122500Y-8016214D01*
X11308214Y-8016214D01*
X11651071Y-8001929D02*
X11679643Y-8016214D01*
X11736786Y-8016214D01*
X11765357Y-8001929D01*
X11779643Y-7973357D01*
X11779643Y-7959071D01*
X11765357Y-7930500D01*
X11736786Y-7916214D01*
X11693928Y-7916214D01*
X11665357Y-7901929D01*
X11651071Y-7873357D01*
X11651071Y-7859071D01*
X11665357Y-7830500D01*
X11693928Y-7816214D01*
X11736786Y-7816214D01*
X11765357Y-7830500D01*
X11951071Y-8016214D02*
X11922500Y-8001929D01*
X11908214Y-7973357D01*
X11908214Y-7716214D01*
X12108214Y-8016214D02*
X12079643Y-8001929D01*
X12065357Y-7987643D01*
X12051071Y-7959071D01*
X12051071Y-7873357D01*
X12065357Y-7844786D01*
X12079643Y-7830500D01*
X12108214Y-7816214D01*
X12151071Y-7816214D01*
X12179643Y-7830500D01*
X12193928Y-7844786D01*
X12208214Y-7873357D01*
X12208214Y-7959071D01*
X12193928Y-7987643D01*
X12179643Y-8001929D01*
X12151071Y-8016214D01*
X12108214Y-8016214D01*
X12293928Y-7816214D02*
X12408214Y-7816214D01*
X12336786Y-7716214D02*
X12336786Y-7973357D01*
X12351071Y-8001929D01*
X12379643Y-8016214D01*
X12408214Y-8016214D01*
X12493928Y-8001929D02*
X12522500Y-8016214D01*
X12579643Y-8016214D01*
X12608214Y-8001929D01*
X12622500Y-7973357D01*
X12622500Y-7959071D01*
X12608214Y-7930500D01*
X12579643Y-7916214D01*
X12536786Y-7916214D01*
X12508214Y-7901929D01*
X12493928Y-7873357D01*
X12493928Y-7859071D01*
X12508214Y-7830500D01*
X12536786Y-7816214D01*
X12579643Y-7816214D01*
X12608214Y-7830500D01*
X12722500Y-8130500D02*
X12736786Y-8116214D01*
X12765357Y-8073357D01*
X12779643Y-8044786D01*
X12793928Y-8001929D01*
X12808214Y-7930500D01*
X12808214Y-7873357D01*
X12793928Y-7801929D01*
X12779643Y-7759071D01*
X12765357Y-7730500D01*
X12736786Y-7687643D01*
X12722500Y-7673357D01*
X3697500Y-8221500D02*
X3807500Y-8331500D01*
X3807500Y-8221500D02*
X3697500Y-8331500D01*
X3807500Y-8276500D02*
G75*
G03X3807500Y-8276500I-55000J0D01*
G01*
X4251071Y-8412214D02*
X4079643Y-8412214D01*
X4165357Y-8412214D02*
X4165357Y-8112214D01*
X4136786Y-8155071D01*
X4108214Y-8183643D01*
X4079643Y-8197929D01*
X4379643Y-8383643D02*
X4393928Y-8397929D01*
X4379643Y-8412214D01*
X4365357Y-8397929D01*
X4379643Y-8383643D01*
X4379643Y-8412214D01*
X4679643Y-8412214D02*
X4508214Y-8412214D01*
X4593928Y-8412214D02*
X4593928Y-8112214D01*
X4565357Y-8155071D01*
X4536786Y-8183643D01*
X4508214Y-8197929D01*
X4865357Y-8112214D02*
X4893928Y-8112214D01*
X4922500Y-8126500D01*
X4936786Y-8140786D01*
X4951071Y-8169357D01*
X4965357Y-8226500D01*
X4965357Y-8297929D01*
X4951071Y-8355071D01*
X4936786Y-8383643D01*
X4922500Y-8397929D01*
X4893928Y-8412214D01*
X4865357Y-8412214D01*
X4836786Y-8397929D01*
X4822500Y-8383643D01*
X4808214Y-8355071D01*
X4793928Y-8297929D01*
X4793928Y-8226500D01*
X4808214Y-8169357D01*
X4822500Y-8140786D01*
X4836786Y-8126500D01*
X4865357Y-8112214D01*
X5093928Y-8412214D02*
X5093928Y-8212214D01*
X5093928Y-8240786D02*
X5108214Y-8226500D01*
X5136786Y-8212214D01*
X5179643Y-8212214D01*
X5208214Y-8226500D01*
X5222500Y-8255071D01*
X5222500Y-8412214D01*
X5222500Y-8255071D02*
X5236786Y-8226500D01*
X5265357Y-8212214D01*
X5308214Y-8212214D01*
X5336786Y-8226500D01*
X5351071Y-8255071D01*
X5351071Y-8412214D01*
X5493928Y-8412214D02*
X5493928Y-8212214D01*
X5493928Y-8240786D02*
X5508214Y-8226500D01*
X5536786Y-8212214D01*
X5579643Y-8212214D01*
X5608214Y-8226500D01*
X5622500Y-8255071D01*
X5622500Y-8412214D01*
X5622500Y-8255071D02*
X5636786Y-8226500D01*
X5665357Y-8212214D01*
X5708214Y-8212214D01*
X5736786Y-8226500D01*
X5751071Y-8255071D01*
X5751071Y-8412214D01*
X6336786Y-8097929D02*
X6079643Y-8483643D01*
X6722500Y-8112214D02*
X6751071Y-8112214D01*
X6779643Y-8126500D01*
X6793928Y-8140786D01*
X6808214Y-8169357D01*
X6822500Y-8226500D01*
X6822500Y-8297929D01*
X6808214Y-8355071D01*
X6793928Y-8383643D01*
X6779643Y-8397929D01*
X6751071Y-8412214D01*
X6722500Y-8412214D01*
X6693928Y-8397929D01*
X6679643Y-8383643D01*
X6665357Y-8355071D01*
X6651071Y-8297929D01*
X6651071Y-8226500D01*
X6665357Y-8169357D01*
X6679643Y-8140786D01*
X6693928Y-8126500D01*
X6722500Y-8112214D01*
X6951071Y-8383643D02*
X6965357Y-8397929D01*
X6951071Y-8412214D01*
X6936786Y-8397929D01*
X6951071Y-8383643D01*
X6951071Y-8412214D01*
X7151071Y-8112214D02*
X7179643Y-8112214D01*
X7208214Y-8126500D01*
X7222500Y-8140786D01*
X7236786Y-8169357D01*
X7251071Y-8226500D01*
X7251071Y-8297929D01*
X7236786Y-8355071D01*
X7222500Y-8383643D01*
X7208214Y-8397929D01*
X7179643Y-8412214D01*
X7151071Y-8412214D01*
X7122500Y-8397929D01*
X7108214Y-8383643D01*
X7093928Y-8355071D01*
X7079643Y-8297929D01*
X7079643Y-8226500D01*
X7093928Y-8169357D01*
X7108214Y-8140786D01*
X7122500Y-8126500D01*
X7151071Y-8112214D01*
X7508214Y-8212214D02*
X7508214Y-8412214D01*
X7436786Y-8097929D02*
X7365357Y-8312214D01*
X7551071Y-8312214D01*
X7636786Y-8112214D02*
X7822500Y-8112214D01*
X7722500Y-8226500D01*
X7765357Y-8226500D01*
X7793928Y-8240786D01*
X7808214Y-8255071D01*
X7822500Y-8283643D01*
X7822500Y-8355071D01*
X7808214Y-8383643D01*
X7793928Y-8397929D01*
X7765357Y-8412214D01*
X7679643Y-8412214D01*
X7651071Y-8397929D01*
X7636786Y-8383643D01*
X7936786Y-8112214D02*
X7936786Y-8169357D01*
X8051071Y-8112214D02*
X8051071Y-8169357D01*
X8493928Y-8526500D02*
X8479643Y-8512214D01*
X8451071Y-8469357D01*
X8436786Y-8440786D01*
X8422500Y-8397929D01*
X8408214Y-8326500D01*
X8408214Y-8269357D01*
X8422500Y-8197929D01*
X8436786Y-8155071D01*
X8451071Y-8126500D01*
X8479643Y-8083643D01*
X8493928Y-8069357D01*
X8593928Y-8140786D02*
X8608214Y-8126500D01*
X8636786Y-8112214D01*
X8708214Y-8112214D01*
X8736786Y-8126500D01*
X8751071Y-8140786D01*
X8765357Y-8169357D01*
X8765357Y-8197929D01*
X8751071Y-8240786D01*
X8579643Y-8412214D01*
X8765357Y-8412214D01*
X9122500Y-8412214D02*
X9122500Y-8112214D01*
X9251071Y-8412214D02*
X9251071Y-8255071D01*
X9236786Y-8226500D01*
X9208214Y-8212214D01*
X9165357Y-8212214D01*
X9136786Y-8226500D01*
X9122500Y-8240786D01*
X9436786Y-8412214D02*
X9408214Y-8397929D01*
X9393928Y-8383643D01*
X9379643Y-8355071D01*
X9379643Y-8269357D01*
X9393928Y-8240786D01*
X9408214Y-8226500D01*
X9436786Y-8212214D01*
X9479643Y-8212214D01*
X9508214Y-8226500D01*
X9522500Y-8240786D01*
X9536786Y-8269357D01*
X9536786Y-8355071D01*
X9522500Y-8383643D01*
X9508214Y-8397929D01*
X9479643Y-8412214D01*
X9436786Y-8412214D01*
X9708214Y-8412214D02*
X9679643Y-8397929D01*
X9665357Y-8369357D01*
X9665357Y-8112214D01*
X9936786Y-8397929D02*
X9908214Y-8412214D01*
X9851071Y-8412214D01*
X9822500Y-8397929D01*
X9808214Y-8369357D01*
X9808214Y-8255071D01*
X9822500Y-8226500D01*
X9851071Y-8212214D01*
X9908214Y-8212214D01*
X9936786Y-8226500D01*
X9951071Y-8255071D01*
X9951071Y-8283643D01*
X9808214Y-8312214D01*
X10065357Y-8397929D02*
X10093928Y-8412214D01*
X10151071Y-8412214D01*
X10179643Y-8397929D01*
X10193928Y-8369357D01*
X10193928Y-8355071D01*
X10179643Y-8326500D01*
X10151071Y-8312214D01*
X10108214Y-8312214D01*
X10079643Y-8297929D01*
X10065357Y-8269357D01*
X10065357Y-8255071D01*
X10079643Y-8226500D01*
X10108214Y-8212214D01*
X10151071Y-8212214D01*
X10179643Y-8226500D01*
X10293928Y-8526500D02*
X10308214Y-8512214D01*
X10336786Y-8469357D01*
X10351071Y-8440786D01*
X10365357Y-8397929D01*
X10379643Y-8326500D01*
X10379643Y-8269357D01*
X10365357Y-8197929D01*
X10351071Y-8155071D01*
X10336786Y-8126500D01*
X10308214Y-8083643D01*
X10293928Y-8069357D01*
M02*
