M48
; DRILL file {KiCad 5.1.5} date So 24 Mai 2020 22:31:36 CEST
; FORMAT={-:-/ absolute / inch / decimal}
; #@! TF.CreationDate,2020-05-24T22:31:36+02:00
; #@! TF.GenerationSoftware,Kicad,Pcbnew,5.1.5
; #@! TF.FileFunction,Plated,1,2,PTH
FMAT,2
INCH
T1C0.0295
T2C0.0300
T3C0.0315
T4C0.0354
T5C0.0394
T6C0.0433
%
G90
G05
T1
X3.85Y-1.05
X3.9Y-1.0
X3.95Y-1.05
T2
X1.7077Y-1.0622
X1.7077Y-1.1606
X1.7077Y-1.2394
X1.7077Y-1.3378
T3
X2.325Y-1.35
X2.325Y-1.5469
X4.0Y-1.85
X4.1969Y-1.85
X4.775Y-1.25
X4.775Y-1.35
X4.775Y-1.45
X4.775Y-1.55
X4.775Y-1.65
X5.075Y-1.25
X5.075Y-1.35
X5.075Y-1.45
X5.075Y-1.55
X5.075Y-1.65
X5.2396Y-1.25
X5.2396Y-1.35
X5.2396Y-1.45
X5.2396Y-1.55
X5.2396Y-1.65
X5.5396Y-1.25
X5.5396Y-1.35
X5.5396Y-1.45
X5.5396Y-1.55
X5.5396Y-1.65
X2.65Y-1.65
X2.65Y-1.75
X3.425Y-0.925
X3.6219Y-0.925
X3.6Y-1.825
X3.7Y-1.825
X4.525Y-1.475
X4.625Y-1.475
X4.525Y-1.15
X4.625Y-1.15
X3.18Y-0.9231
X3.18Y-1.12
X2.025Y-1.35
X2.025Y-1.4287
T4
X2.65Y-1.35
X2.65Y-1.45
X3.325Y-1.825
X3.425Y-1.825
T5
X4.0Y-2.0
X4.1Y-2.0
X4.2Y-2.0
T6
X1.625Y-1.1094
X1.625Y-1.2906
T5
G00X1.6506Y-0.9756
M15
G01X1.5915Y-0.9756
M16
G05
G00X1.6506Y-1.4244
M15
G01X1.5915Y-1.4244
M16
G05
T0
M30
